<?xml version="1.0" encoding="UTF-8" standalone="no"?>
<!DOCTYPE svg PUBLIC "-//W3C//DTD SVG 1.0//EN" "http://www.w3.org/TR/2001/PR-SVG-20010719/DTD/svg10.dtd">
<svg width="37cm" height="15cm" viewBox="19 59 722 282" xmlns="http://www.w3.org/2000/svg" xmlns:xlink="http://www.w3.org/1999/xlink">
  <g>
    <rect style="fill: #e3e3e3" x="20" y="60" width="220" height="280"/>
    <rect style="fill: none; fill-opacity:0; stroke-width: 1; stroke: #ffffff" x="20" y="60" width="220" height="280"/>
  </g>
  <text font-size="12.8" style="fill: #000000;text-anchor:middle;font-family:sans-serif;font-style:normal;font-weight:normal" x="130" y="73.7">
    <tspan x="130" y="73.7">sources</tspan>
  </text>
  <g>
    <rect style="fill: #b9ffbc" x="40" y="160" width="180" height="60"/>
    <rect style="fill: none; fill-opacity:0; stroke-width: 1; stroke: #000000" x="40" y="160" width="180" height="60"/>
  </g>
  <text font-size="12.8" style="fill: #000000;text-anchor:middle;font-family:sans-serif;font-style:normal;font-weight:normal" x="130" y="173.7">
    <tspan x="130" y="173.7">project_using_stl.cpp</tspan>
  </text>
  <g>
    <rect style="fill: #ff7b7b" x="60" y="180" width="140" height="20"/>
    <rect style="fill: none; fill-opacity:0; stroke-width: 1; stroke: #000000" x="60" y="180" width="140" height="20"/>
  </g>
  <text font-size="12.8" style="fill: #000000;text-anchor:middle;font-family:sans-serif;font-style:normal;font-weight:normal" x="130" y="193.7">
    <tspan x="130" y="193.7">inc_stl.h</tspan>
  </text>
  <g>
    <rect style="fill: #d2d2d2" x="240" y="60" width="500" height="280"/>
    <rect style="fill: none; fill-opacity:0; stroke-width: 1; stroke: #ffffff" x="240" y="60" width="500" height="280"/>
  </g>
  <text font-size="12.8" style="fill: #000000;text-anchor:middle;font-family:sans-serif;font-style:normal;font-weight:normal" x="490" y="73.7">
    <tspan x="490" y="73.7">outputs</tspan>
  </text>
  <g>
    <rect style="fill: #85d389" x="500" y="180" width="220" height="20"/>
    <rect style="fill: none; fill-opacity:0; stroke-width: 1; stroke: #000000" x="500" y="180" width="220" height="20"/>
  </g>
  <text font-size="12.8" style="fill: #000000;text-anchor:middle;font-family:sans-serif;font-style:normal;font-weight:normal" x="610" y="193.7">
    <tspan x="610" y="193.7">project_using_stl</tspan>
  </text>
  <g>
    <line style="fill: none; fill-opacity:0; stroke-width: 1; stroke: #000000" x1="220" y1="190" x2="497.764" y2="190"/>
    <polyline style="fill: none; fill-opacity:0; stroke-width: 1; stroke: #000000" points="488.882,195 498.882,190 488.882,185 "/>
  </g>
  <text font-size="12.8" style="fill: #000000;text-anchor:middle;font-family:sans-serif;font-style:normal;font-weight:normal" x="360" y="186.25">
    <tspan x="360" y="186.25">build_project_using_stl.sh</tspan>
  </text>
  <text font-size="12.8" style="fill: #ff0000;text-anchor:middle;font-family:sans-serif;font-style:normal;font-weight:normal" x="360" y="203.7">
    <tspan x="360" y="203.7">0.3 s</tspan>
  </text>
  <g>
    <rect style="fill: #85d389" x="500" y="100" width="220" height="20"/>
    <rect style="fill: none; fill-opacity:0; stroke-width: 1; stroke: #000000" x="500" y="100" width="220" height="20"/>
  </g>
  <text font-size="12.8" style="fill: #000000;text-anchor:middle;font-family:sans-serif;font-style:normal;font-weight:normal" x="610" y="113.7">
    <tspan x="610" y="113.7">pch_stl.h.pch</tspan>
  </text>
  <g>
    <line style="fill: none; fill-opacity:0; stroke-width: 1; stroke-dasharray: 4; stroke: #000000" x1="500" y1="110" x2="222.15" y2="189.386"/>
    <polyline style="fill: none; fill-opacity:0; stroke-width: 1; stroke: #000000" points="229.317,182.138 221.075,189.693 232.064,191.753 "/>
  </g>
  <g>
    <rect style="fill: #b9ffbc" x="40" y="260" width="180" height="60"/>
    <rect style="fill: none; fill-opacity:0; stroke-width: 1; stroke: #000000" x="40" y="260" width="180" height="60"/>
  </g>
  <text font-size="12.8" style="fill: #000000;text-anchor:middle;font-family:sans-serif;font-style:normal;font-weight:normal" x="130" y="273.7">
    <tspan x="130" y="273.7">project_using_stl.cpp</tspan>
  </text>
  <g>
    <rect style="fill: #ff7b7b" x="60" y="280" width="140" height="20"/>
    <rect style="fill: none; fill-opacity:0; stroke-width: 1; stroke: #000000" x="60" y="280" width="140" height="20"/>
  </g>
  <text font-size="12.8" style="fill: #000000;text-anchor:middle;font-family:sans-serif;font-style:normal;font-weight:normal" x="130" y="293.7">
    <tspan x="130" y="293.7">inc_stl.h</tspan>
  </text>
  <g>
    <rect style="fill: #85d389" x="500" y="280" width="220" height="20"/>
    <rect style="fill: none; fill-opacity:0; stroke-width: 1; stroke: #000000" x="500" y="280" width="220" height="20"/>
  </g>
  <text font-size="12.8" style="fill: #000000;text-anchor:middle;font-family:sans-serif;font-style:normal;font-weight:normal" x="610" y="293.7">
    <tspan x="610" y="293.7">project_using_stl</tspan>
  </text>
  <g>
    <line style="fill: none; fill-opacity:0; stroke-width: 1; stroke: #000000" x1="220" y1="290" x2="497.764" y2="290"/>
    <polyline style="fill: none; fill-opacity:0; stroke-width: 1; stroke: #000000" points="488.882,295 498.882,290 488.882,285 "/>
  </g>
  <text font-size="12.8" style="fill: #000000;text-anchor:middle;font-family:sans-serif;font-style:normal;font-weight:normal" x="360" y="286.25">
    <tspan x="360" y="286.25">build_project_using_stl__without_pch.sh</tspan>
  </text>
  <text font-size="12.8" style="fill: #ff0000;text-anchor:middle;font-family:sans-serif;font-style:normal;font-weight:normal" x="360" y="303.7">
    <tspan x="360" y="303.7">1.3 s</tspan>
  </text>
</svg>
