<?xml version="1.0" encoding="UTF-8" standalone="no"?>
<!DOCTYPE svg PUBLIC "-//W3C//DTD SVG 1.0//EN" "http://www.w3.org/TR/2001/PR-SVG-20010719/DTD/svg10.dtd">
<svg width="37cm" height="7cm" viewBox="19 59 722 122" xmlns="http://www.w3.org/2000/svg" xmlns:xlink="http://www.w3.org/1999/xlink">
  <g>
    <rect style="fill: #e3e3e3" x="20" y="60" width="220" height="120"/>
    <rect style="fill: none; fill-opacity:0; stroke-width: 1; stroke: #ffffff" x="20" y="60" width="220" height="120"/>
  </g>
  <text font-size="12.8" style="fill: #000000;text-anchor:middle;font-family:sans-serif;font-style:normal;font-weight:normal" x="130" y="73.7">
    <tspan x="130" y="73.7">sources</tspan>
  </text>
  <g>
    <rect style="fill: #b9ffbc" x="40" y="100" width="180" height="60"/>
    <rect style="fill: none; fill-opacity:0; stroke-width: 1; stroke: #000000" x="40" y="100" width="180" height="60"/>
  </g>
  <text font-size="12.8" style="fill: #000000;text-anchor:middle;font-family:sans-serif;font-style:normal;font-weight:normal" x="130" y="113.7">
    <tspan x="130" y="113.7">pch_stl.h</tspan>
  </text>
  <g>
    <rect style="fill: #ff7b7b" x="60" y="120" width="140" height="20"/>
    <rect style="fill: none; fill-opacity:0; stroke-width: 1; stroke: #000000" x="60" y="120" width="140" height="20"/>
  </g>
  <text font-size="12.8" style="fill: #000000;text-anchor:middle;font-family:sans-serif;font-style:normal;font-weight:normal" x="130" y="133.7">
    <tspan x="130" y="133.7">inc_stl.h</tspan>
  </text>
  <g>
    <rect style="fill: #d2d2d2" x="240" y="60" width="500" height="120"/>
    <rect style="fill: none; fill-opacity:0; stroke-width: 1; stroke: #ffffff" x="240" y="60" width="500" height="120"/>
  </g>
  <text font-size="12.8" style="fill: #000000;text-anchor:middle;font-family:sans-serif;font-style:normal;font-weight:normal" x="490" y="73.7">
    <tspan x="490" y="73.7">outputs</tspan>
  </text>
  <g>
    <rect style="fill: #85d389" x="540" y="120" width="180" height="20"/>
    <rect style="fill: none; fill-opacity:0; stroke-width: 1; stroke: #000000" x="540" y="120" width="180" height="20"/>
  </g>
  <text font-size="12.8" style="fill: #000000;text-anchor:middle;font-family:sans-serif;font-style:normal;font-weight:normal" x="630" y="133.7">
    <tspan x="630" y="133.7">pch_stl.h.pch</tspan>
  </text>
  <g>
    <line style="fill: none; fill-opacity:0; stroke-width: 1; stroke: #000000" x1="220" y1="130" x2="537.764" y2="130"/>
    <polyline style="fill: none; fill-opacity:0; stroke-width: 1; stroke: #000000" points="528.882,135 538.882,130 528.882,125 "/>
  </g>
  <text font-size="12.8" style="fill: #000000;text-anchor:middle;font-family:sans-serif;font-style:normal;font-weight:normal" x="380" y="126.25">
    <tspan x="380" y="126.25">create_pch_stl.sh</tspan>
  </text>
  <text font-size="12.8" style="fill: #ff0000;text-anchor:middle;font-family:sans-serif;font-style:normal;font-weight:normal" x="380" y="143.7">
    <tspan x="380" y="143.7">1.3 s</tspan>
  </text>
</svg>
