<?xml version="1.0" encoding="UTF-8" standalone="no"?>
<!DOCTYPE svg PUBLIC "-//W3C//DTD SVG 1.0//EN" "http://www.w3.org/TR/2001/PR-SVG-20010719/DTD/svg10.dtd">
<svg width="20cm" height="17cm" viewBox="37 27 394 335" xmlns="http://www.w3.org/2000/svg" xmlns:xlink="http://www.w3.org/1999/xlink">
  <g>
    <ellipse style="fill: #1c5287" cx="50" cy="50" rx="10" ry="10"/>
    <ellipse style="fill: none; fill-opacity:0; stroke-width: 2; stroke: #7f7f7f" cx="50" cy="50" rx="10" ry="10"/>
    <ellipse style="fill: none; fill-opacity:0; stroke-width: 2; stroke: #7f7f7f" cx="50" cy="50" rx="10" ry="10"/>
  </g>
  <text font-size="11.2889" style="fill: #ffffff;text-anchor:middle;font-family:sans-serif;font-style:normal;font-weight:normal" x="50" y="54.4">
    <tspan x="50" y="54.4">1</tspan>
  </text>
  <g>
    <ellipse style="fill: #1c5287" cx="90" cy="50" rx="10" ry="10"/>
    <ellipse style="fill: none; fill-opacity:0; stroke-width: 2; stroke: #7f7f7f" cx="90" cy="50" rx="10" ry="10"/>
    <ellipse style="fill: none; fill-opacity:0; stroke-width: 2; stroke: #7f7f7f" cx="90" cy="50" rx="10" ry="10"/>
  </g>
  <text font-size="11.2889" style="fill: #ffffff;text-anchor:middle;font-family:sans-serif;font-style:normal;font-weight:normal" x="90" y="54.4">
    <tspan x="90" y="54.4">2</tspan>
  </text>
  <text font-size="12.8" style="fill: #000000;text-anchor:start;font-family:sans-serif;font-style:normal;font-weight:normal" x="90" y="50">
    <tspan x="90" y="50"></tspan>
  </text>
  <text font-size="12.8" style="fill: #000000;text-anchor:start;font-family:sans-serif;font-style:normal;font-weight:normal" x="80" y="50">
    <tspan x="80" y="50"></tspan>
  </text>
  <g>
    <line style="fill: none; fill-opacity:0; stroke-width: 1; stroke: #000000" x1="80" y1="50" x2="62.2361" y2="50"/>
    <polyline style="fill: none; fill-opacity:0; stroke-width: 1; stroke: #000000" points="66.118,47.5 61.118,50 66.118,52.5 "/>
  </g>
  <text font-size="8.46667" style="fill: #000000;text-anchor:start;font-family:sans-serif;font-style:normal;font-weight:normal" x="68" y="198">
    <tspan x="68" y="198">git checkout other</tspan>
    <tspan x="68" y="208.583">git rebase main</tspan>
  </text>
  <g>
    <polygon style="fill: #ffffff" points="45,190 45,200 40,200 50,210 60,200 55,200 55,190 "/>
    <polygon style="fill: none; fill-opacity:0; stroke-width: 2; stroke: #000000" points="45,190 45,200 40,200 50,210 60,200 55,200 55,190 "/>
    <polygon style="fill: none; fill-opacity:0; stroke-width: 2; stroke: #000000" points="45,190 45,200 40,200 50,210 60,200 55,200 55,190 "/>
  </g>
  <text font-size="11.2889" style="fill: #ffffff;text-anchor:middle;font-family:sans-serif;font-style:normal;font-weight:normal" x="130" y="54.4">
    <tspan x="130" y="54.4">3</tspan>
  </text>
  <text font-size="12.8" style="fill: #000000;text-anchor:start;font-family:sans-serif;font-style:normal;font-weight:normal" x="130" y="50">
    <tspan x="130" y="50"></tspan>
  </text>
  <text font-size="12.8" style="fill: #000000;text-anchor:start;font-family:sans-serif;font-style:normal;font-weight:normal" x="120" y="50">
    <tspan x="120" y="50"></tspan>
  </text>
  <g>
    <line style="fill: none; fill-opacity:0; stroke-width: 1; stroke: #000000" x1="120" y1="50" x2="102.236" y2="50"/>
    <polyline style="fill: none; fill-opacity:0; stroke-width: 1; stroke: #000000" points="106.118,47.5 101.118,50 106.118,52.5 "/>
  </g>
  <text font-size="12.8" style="fill: #000000;text-anchor:start;font-family:sans-serif;font-style:normal;font-weight:normal" x="170" y="50">
    <tspan x="170" y="50"></tspan>
  </text>
  <g>
    <line style="fill: none; fill-opacity:0; stroke-width: 1; stroke: #000000" x1="160" y1="50" x2="142.236" y2="50"/>
    <polyline style="fill: none; fill-opacity:0; stroke-width: 1; stroke: #000000" points="146.118,47.5 141.118,50 146.118,52.5 "/>
  </g>
  <text font-size="11.2889" style="fill: #ffffff;text-anchor:middle;font-family:sans-serif;font-style:normal;font-weight:normal" x="170" y="54.4">
    <tspan x="170" y="54.4">4</tspan>
  </text>
  <g>
    <ellipse style="fill: #1c5287" cx="130" cy="50" rx="10" ry="10"/>
    <ellipse style="fill: none; fill-opacity:0; stroke-width: 2; stroke: #7f7f7f" cx="130" cy="50" rx="10" ry="10"/>
    <ellipse style="fill: none; fill-opacity:0; stroke-width: 2; stroke: #7f7f7f" cx="130" cy="50" rx="10" ry="10"/>
  </g>
  <text font-size="11.2889" style="fill: #ffffff;text-anchor:middle;font-family:sans-serif;font-style:normal;font-weight:normal" x="130" y="54.4">
    <tspan x="130" y="54.4">3</tspan>
  </text>
  <g>
    <ellipse style="fill: #1c5287" cx="170" cy="50" rx="10" ry="10"/>
    <ellipse style="fill: none; fill-opacity:0; stroke-width: 2; stroke: #7f7f7f" cx="170" cy="50" rx="10" ry="10"/>
    <ellipse style="fill: none; fill-opacity:0; stroke-width: 2; stroke: #7f7f7f" cx="170" cy="50" rx="10" ry="10"/>
  </g>
  <text font-size="11.2889" style="fill: #ffffff;text-anchor:middle;font-family:sans-serif;font-style:normal;font-weight:normal" x="170" y="54.4">
    <tspan x="170" y="54.4">4</tspan>
  </text>
  <g>
    <polygon style="fill: #26ed0a" points="159,28 181,28 192,40 148,40 "/>
    <polygon style="fill: none; fill-opacity:0; stroke-width: 1; stroke: #000000" points="159,28 181,28 192,40 148,40 "/>
    <polygon style="fill: none; fill-opacity:0; stroke-width: 1; stroke: #000000" points="159,28 181,28 192,40 148,40 "/>
  </g>
  <text font-size="8.46667" style="fill: #000000;text-anchor:middle;font-family:sans-serif;font-style:normal;font-weight:normal" x="170" y="37.275">
    <tspan x="170" y="37.275">main</tspan>
  </text>
  <text font-size="11.2889" style="fill: #ffffff;text-anchor:middle;font-family:sans-serif;font-style:normal;font-weight:normal" x="130" y="135.4">
    <tspan x="130" y="135.4">3</tspan>
  </text>
  <text font-size="12.8" style="fill: #000000;text-anchor:start;font-family:sans-serif;font-style:normal;font-weight:normal" x="130" y="131">
    <tspan x="130" y="131"></tspan>
  </text>
  <text font-size="12.8" style="fill: #000000;text-anchor:start;font-family:sans-serif;font-style:normal;font-weight:normal" x="120" y="131">
    <tspan x="120" y="131"></tspan>
  </text>
  <g>
    <line style="fill: none; fill-opacity:0; stroke-width: 1; stroke: #000000" x1="120" y1="131" x2="90.8703" y2="62.0597"/>
    <polyline style="fill: none; fill-opacity:0; stroke-width: 1; stroke: #000000" points="94.6841,64.6626 90.4352,61.0299 90.0784,66.6086 "/>
  </g>
  <text font-size="12.8" style="fill: #000000;text-anchor:start;font-family:sans-serif;font-style:normal;font-weight:normal" x="170" y="131">
    <tspan x="170" y="131"></tspan>
  </text>
  <g>
    <line style="fill: none; fill-opacity:0; stroke-width: 1; stroke: #000000" x1="160" y1="131" x2="142.236" y2="131"/>
    <polyline style="fill: none; fill-opacity:0; stroke-width: 1; stroke: #000000" points="146.118,128.5 141.118,131 146.118,133.5 "/>
  </g>
  <text font-size="11.2889" style="fill: #ffffff;text-anchor:middle;font-family:sans-serif;font-style:normal;font-weight:normal" x="170" y="135.4">
    <tspan x="170" y="135.4">4</tspan>
  </text>
  <g>
    <ellipse style="fill: #1c5287" cx="130" cy="131" rx="10" ry="10"/>
    <ellipse style="fill: none; fill-opacity:0; stroke-width: 2; stroke: #7f7f7f" cx="130" cy="131" rx="10" ry="10"/>
    <ellipse style="fill: none; fill-opacity:0; stroke-width: 2; stroke: #7f7f7f" cx="130" cy="131" rx="10" ry="10"/>
  </g>
  <text font-size="11.2889" style="fill: #ffffff;text-anchor:middle;font-family:sans-serif;font-style:normal;font-weight:normal" x="130" y="135.4">
    <tspan x="130" y="135.4">7</tspan>
  </text>
  <g>
    <ellipse style="fill: #1c5287" cx="170" cy="131" rx="10" ry="10"/>
    <ellipse style="fill: none; fill-opacity:0; stroke-width: 2; stroke: #7f7f7f" cx="170" cy="131" rx="10" ry="10"/>
    <ellipse style="fill: none; fill-opacity:0; stroke-width: 2; stroke: #7f7f7f" cx="170" cy="131" rx="10" ry="10"/>
  </g>
  <text font-size="11.2889" style="fill: #ffffff;text-anchor:middle;font-family:sans-serif;font-style:normal;font-weight:normal" x="170" y="135.4">
    <tspan x="170" y="135.4">8</tspan>
  </text>
  <text font-size="11.2889" style="fill: #ffffff;text-anchor:middle;font-family:sans-serif;font-style:normal;font-weight:normal" x="130" y="175.4">
    <tspan x="130" y="175.4">3</tspan>
  </text>
  <text font-size="12.8" style="fill: #000000;text-anchor:start;font-family:sans-serif;font-style:normal;font-weight:normal" x="130" y="171">
    <tspan x="130" y="171"></tspan>
  </text>
  <text font-size="12.8" style="fill: #000000;text-anchor:start;font-family:sans-serif;font-style:normal;font-weight:normal" x="120" y="171">
    <tspan x="120" y="171"></tspan>
  </text>
  <g>
    <line style="fill: none; fill-opacity:0; stroke-width: 1; stroke: #000000" x1="120" y1="171" x2="90.5834" y2="62.1586"/>
    <polyline style="fill: none; fill-opacity:0; stroke-width: 1; stroke: #000000" points="94.0097,65.2539 90.2917,61.0793 89.1828,66.5584 "/>
  </g>
  <text font-size="12.8" style="fill: #000000;text-anchor:start;font-family:sans-serif;font-style:normal;font-weight:normal" x="170" y="171">
    <tspan x="170" y="171"></tspan>
  </text>
  <g>
    <line style="fill: none; fill-opacity:0; stroke-width: 1; stroke: #000000" x1="160" y1="171" x2="142.236" y2="171"/>
    <polyline style="fill: none; fill-opacity:0; stroke-width: 1; stroke: #000000" points="146.118,168.5 141.118,171 146.118,173.5 "/>
  </g>
  <text font-size="11.2889" style="fill: #ffffff;text-anchor:middle;font-family:sans-serif;font-style:normal;font-weight:normal" x="170" y="175.4">
    <tspan x="170" y="175.4">4</tspan>
  </text>
  <g>
    <ellipse style="fill: #1c5287" cx="130" cy="171" rx="10" ry="10"/>
    <ellipse style="fill: none; fill-opacity:0; stroke-width: 2; stroke: #7f7f7f" cx="130" cy="171" rx="10" ry="10"/>
    <ellipse style="fill: none; fill-opacity:0; stroke-width: 2; stroke: #7f7f7f" cx="130" cy="171" rx="10" ry="10"/>
  </g>
  <text font-size="11.2889" style="fill: #ffffff;text-anchor:middle;font-family:sans-serif;font-style:normal;font-weight:normal" x="130" y="175.4">
    <tspan x="130" y="175.4">9</tspan>
  </text>
  <g>
    <ellipse style="fill: #1c5287" cx="170" cy="171" rx="10" ry="10"/>
    <ellipse style="fill: none; fill-opacity:0; stroke-width: 2; stroke: #7f7f7f" cx="170" cy="171" rx="10" ry="10"/>
    <ellipse style="fill: none; fill-opacity:0; stroke-width: 2; stroke: #7f7f7f" cx="170" cy="171" rx="10" ry="10"/>
  </g>
  <text font-size="11.2889" style="fill: #ffffff;text-anchor:middle;font-family:sans-serif;font-style:normal;font-weight:normal" x="170" y="175.4">
    <tspan x="170" y="175.4">10</tspan>
  </text>
  <text font-size="11.2889" style="fill: #ffffff;text-anchor:middle;font-family:sans-serif;font-style:normal;font-weight:normal" x="130" y="94.4">
    <tspan x="130" y="94.4">3</tspan>
  </text>
  <text font-size="12.8" style="fill: #000000;text-anchor:start;font-family:sans-serif;font-style:normal;font-weight:normal" x="130" y="90">
    <tspan x="130" y="90"></tspan>
  </text>
  <text font-size="12.8" style="fill: #000000;text-anchor:start;font-family:sans-serif;font-style:normal;font-weight:normal" x="120" y="90">
    <tspan x="120" y="90"></tspan>
  </text>
  <g>
    <line style="fill: none; fill-opacity:0; stroke-width: 1; stroke: #000000" x1="120" y1="92" x2="91.5293" y2="61.6313"/>
    <polyline style="fill: none; fill-opacity:0; stroke-width: 1; stroke: #000000" points="96.0082,62.7535 90.7647,60.8156 92.3605,66.1732 "/>
  </g>
  <text font-size="12.8" style="fill: #000000;text-anchor:start;font-family:sans-serif;font-style:normal;font-weight:normal" x="170" y="90">
    <tspan x="170" y="90"></tspan>
  </text>
  <g>
    <line style="fill: none; fill-opacity:0; stroke-width: 1; stroke: #000000" x1="160" y1="90" x2="142.236" y2="90"/>
    <polyline style="fill: none; fill-opacity:0; stroke-width: 1; stroke: #000000" points="146.118,87.5 141.118,90 146.118,92.5 "/>
  </g>
  <text font-size="11.2889" style="fill: #ffffff;text-anchor:middle;font-family:sans-serif;font-style:normal;font-weight:normal" x="170" y="94.4">
    <tspan x="170" y="94.4">4</tspan>
  </text>
  <g>
    <ellipse style="fill: #1c5287" cx="130" cy="90" rx="10" ry="10"/>
    <ellipse style="fill: none; fill-opacity:0; stroke-width: 2; stroke: #7f7f7f" cx="130" cy="90" rx="10" ry="10"/>
    <ellipse style="fill: none; fill-opacity:0; stroke-width: 2; stroke: #7f7f7f" cx="130" cy="90" rx="10" ry="10"/>
  </g>
  <text font-size="11.2889" style="fill: #ffffff;text-anchor:middle;font-family:sans-serif;font-style:normal;font-weight:normal" x="130" y="94.4">
    <tspan x="130" y="94.4">5</tspan>
  </text>
  <g>
    <ellipse style="fill: #1c5287" cx="170" cy="90" rx="10" ry="10"/>
    <ellipse style="fill: none; fill-opacity:0; stroke-width: 2; stroke: #7f7f7f" cx="170" cy="90" rx="10" ry="10"/>
    <ellipse style="fill: none; fill-opacity:0; stroke-width: 2; stroke: #7f7f7f" cx="170" cy="90" rx="10" ry="10"/>
  </g>
  <text font-size="11.2889" style="fill: #ffffff;text-anchor:middle;font-family:sans-serif;font-style:normal;font-weight:normal" x="170" y="94.4">
    <tspan x="170" y="94.4">6</tspan>
  </text>
  <text font-size="12.8" style="fill: #000000;text-anchor:start;font-family:sans-serif;font-style:normal;font-weight:normal" x="210" y="90">
    <tspan x="210" y="90"></tspan>
  </text>
  <g>
    <line style="fill: none; fill-opacity:0; stroke-width: 1; stroke: #000000" x1="200" y1="90" x2="182.236" y2="90"/>
    <polyline style="fill: none; fill-opacity:0; stroke-width: 1; stroke: #000000" points="186.118,87.5 181.118,90 186.118,92.5 "/>
  </g>
  <text font-size="11.2889" style="fill: #ffffff;text-anchor:middle;font-family:sans-serif;font-style:normal;font-weight:normal" x="210" y="94.4">
    <tspan x="210" y="94.4">4</tspan>
  </text>
  <g>
    <ellipse style="fill: #1c5287" cx="210" cy="90" rx="10" ry="10"/>
    <ellipse style="fill: none; fill-opacity:0; stroke-width: 2; stroke: #7f7f7f" cx="210" cy="90" rx="10" ry="10"/>
    <ellipse style="fill: none; fill-opacity:0; stroke-width: 2; stroke: #7f7f7f" cx="210" cy="90" rx="10" ry="10"/>
  </g>
  <text font-size="11.2889" style="fill: #ffffff;text-anchor:middle;font-family:sans-serif;font-style:normal;font-weight:normal" x="210" y="94.4">
    <tspan x="210" y="94.4">Ma</tspan>
  </text>
  <text font-size="12.8" style="fill: #000000;text-anchor:start;font-family:sans-serif;font-style:normal;font-weight:normal" x="250" y="90">
    <tspan x="250" y="90"></tspan>
  </text>
  <g>
    <line style="fill: none; fill-opacity:0; stroke-width: 1; stroke: #000000" x1="240" y1="90" x2="222.236" y2="90"/>
    <polyline style="fill: none; fill-opacity:0; stroke-width: 1; stroke: #000000" points="226.118,87.5 221.118,90 226.118,92.5 "/>
  </g>
  <text font-size="11.2889" style="fill: #ffffff;text-anchor:middle;font-family:sans-serif;font-style:normal;font-weight:normal" x="250" y="94.4">
    <tspan x="250" y="94.4">4</tspan>
  </text>
  <g>
    <ellipse style="fill: #1c5287" cx="250" cy="90" rx="10" ry="10"/>
    <ellipse style="fill: none; fill-opacity:0; stroke-width: 2; stroke: #7f7f7f" cx="250" cy="90" rx="10" ry="10"/>
    <ellipse style="fill: none; fill-opacity:0; stroke-width: 2; stroke: #7f7f7f" cx="250" cy="90" rx="10" ry="10"/>
  </g>
  <text font-size="11.2889" style="fill: #ffffff;text-anchor:middle;font-family:sans-serif;font-style:normal;font-weight:normal" x="250" y="94.4">
    <tspan x="250" y="94.4">Mb</tspan>
  </text>
  <g>
    <line style="fill: none; fill-opacity:0; stroke-width: 1; stroke: #000000" x1="240" y1="90" x2="182.338" y2="167.208"/>
    <polyline style="fill: none; fill-opacity:0; stroke-width: 1; stroke: #000000" points="182.658,162.602 181.669,168.104 186.664,165.594 "/>
  </g>
  <g>
    <line style="fill: none; fill-opacity:0; stroke-width: 1; stroke: #000000" x1="200" y1="90" x2="181.98" y2="126.99"/>
    <polyline style="fill: none; fill-opacity:0; stroke-width: 1; stroke: #000000" points="181.432,122.405 181.49,127.995 185.927,124.595 "/>
  </g>
  <g>
    <polygon style="fill: #26ed0a" points="239,68 261,68 272,80 228,80 "/>
    <polygon style="fill: none; fill-opacity:0; stroke-width: 1; stroke: #000000" points="239,68 261,68 272,80 228,80 "/>
    <polygon style="fill: none; fill-opacity:0; stroke-width: 1; stroke: #000000" points="239,68 261,68 272,80 228,80 "/>
  </g>
  <text font-size="8.46667" style="fill: #000000;text-anchor:middle;font-family:sans-serif;font-style:normal;font-weight:normal" x="250" y="77.275">
    <tspan x="250" y="77.275">other</tspan>
  </text>
  <g>
    <line style="fill: none; fill-opacity:0; stroke-width: 1; stroke: #000000" x1="200" y1="230" x2="182.236" y2="230"/>
    <polyline style="fill: none; fill-opacity:0; stroke-width: 1; stroke: #000000" points="186.118,227.5 181.118,230 186.118,232.5 "/>
  </g>
  <g>
    <line style="fill: none; fill-opacity:0; stroke-width: 1; stroke: #000000" x1="240" y1="230" x2="222.236" y2="230"/>
    <polyline style="fill: none; fill-opacity:0; stroke-width: 1; stroke: #000000" points="226.118,227.5 221.118,230 226.118,232.5 "/>
  </g>
  <g>
    <ellipse style="fill: #1c5287" cx="210" cy="230" rx="10" ry="10"/>
    <ellipse style="fill: none; fill-opacity:0; stroke-width: 2; stroke: #7f7f7f" cx="210" cy="230" rx="10" ry="10"/>
    <ellipse style="fill: none; fill-opacity:0; stroke-width: 2; stroke: #7f7f7f" cx="210" cy="230" rx="10" ry="10"/>
  </g>
  <text font-size="11.2889" style="fill: #ffffff;text-anchor:middle;font-family:sans-serif;font-style:normal;font-weight:normal" x="210" y="234.4">
    <tspan x="210" y="234.4">7'</tspan>
  </text>
  <g>
    <ellipse style="fill: #1c5287" cx="250" cy="230" rx="10" ry="10"/>
    <ellipse style="fill: none; fill-opacity:0; stroke-width: 2; stroke: #7f7f7f" cx="250" cy="230" rx="10" ry="10"/>
    <ellipse style="fill: none; fill-opacity:0; stroke-width: 2; stroke: #7f7f7f" cx="250" cy="230" rx="10" ry="10"/>
  </g>
  <text font-size="11.2889" style="fill: #ffffff;text-anchor:middle;font-family:sans-serif;font-style:normal;font-weight:normal" x="250" y="234.4">
    <tspan x="250" y="234.4">5'</tspan>
  </text>
  <g>
    <line style="fill: none; fill-opacity:0; stroke-width: 1; stroke: #000000" x1="280" y1="230" x2="262.236" y2="230"/>
    <polyline style="fill: none; fill-opacity:0; stroke-width: 1; stroke: #000000" points="266.118,227.5 261.118,230 266.118,232.5 "/>
  </g>
  <g>
    <line style="fill: none; fill-opacity:0; stroke-width: 1; stroke: #000000" x1="320" y1="230" x2="302.236" y2="230"/>
    <polyline style="fill: none; fill-opacity:0; stroke-width: 1; stroke: #000000" points="306.118,227.5 301.118,230 306.118,232.5 "/>
  </g>
  <g>
    <ellipse style="fill: #1c5287" cx="290" cy="230" rx="10" ry="10"/>
    <ellipse style="fill: none; fill-opacity:0; stroke-width: 2; stroke: #7f7f7f" cx="290" cy="230" rx="10" ry="10"/>
    <ellipse style="fill: none; fill-opacity:0; stroke-width: 2; stroke: #7f7f7f" cx="290" cy="230" rx="10" ry="10"/>
  </g>
  <text font-size="11.2889" style="fill: #ffffff;text-anchor:middle;font-family:sans-serif;font-style:normal;font-weight:normal" x="290" y="234.4">
    <tspan x="290" y="234.4">9'</tspan>
  </text>
  <g>
    <ellipse style="fill: #1c5287" cx="330" cy="230" rx="10" ry="10"/>
    <ellipse style="fill: none; fill-opacity:0; stroke-width: 2; stroke: #7f7f7f" cx="330" cy="230" rx="10" ry="10"/>
    <ellipse style="fill: none; fill-opacity:0; stroke-width: 2; stroke: #7f7f7f" cx="330" cy="230" rx="10" ry="10"/>
  </g>
  <text font-size="11.2889" style="fill: #ffffff;text-anchor:middle;font-family:sans-serif;font-style:normal;font-weight:normal" x="330" y="234.4">
    <tspan x="330" y="234.4">8'</tspan>
  </text>
  <g>
    <line style="fill: none; fill-opacity:0; stroke-width: 1; stroke: #000000" x1="360" y1="230" x2="342.236" y2="230"/>
    <polyline style="fill: none; fill-opacity:0; stroke-width: 1; stroke: #000000" points="346.118,227.5 341.118,230 346.118,232.5 "/>
  </g>
  <g>
    <line style="fill: none; fill-opacity:0; stroke-width: 1; stroke: #000000" x1="400" y1="230" x2="382.236" y2="230"/>
    <polyline style="fill: none; fill-opacity:0; stroke-width: 1; stroke: #000000" points="386.118,227.5 381.118,230 386.118,232.5 "/>
  </g>
  <g>
    <ellipse style="fill: #1c5287" cx="370" cy="230" rx="10" ry="10"/>
    <ellipse style="fill: none; fill-opacity:0; stroke-width: 2; stroke: #7f7f7f" cx="370" cy="230" rx="10" ry="10"/>
    <ellipse style="fill: none; fill-opacity:0; stroke-width: 2; stroke: #7f7f7f" cx="370" cy="230" rx="10" ry="10"/>
  </g>
  <text font-size="11.2889" style="fill: #ffffff;text-anchor:middle;font-family:sans-serif;font-style:normal;font-weight:normal" x="370" y="234.4">
    <tspan x="370" y="234.4">6'</tspan>
  </text>
  <g>
    <ellipse style="fill: #1c5287" cx="410" cy="230" rx="10" ry="10"/>
    <ellipse style="fill: none; fill-opacity:0; stroke-width: 2; stroke: #7f7f7f" cx="410" cy="230" rx="10" ry="10"/>
    <ellipse style="fill: none; fill-opacity:0; stroke-width: 2; stroke: #7f7f7f" cx="410" cy="230" rx="10" ry="10"/>
  </g>
  <text font-size="11.2889" style="fill: #ffffff;text-anchor:middle;font-family:sans-serif;font-style:normal;font-weight:normal" x="410" y="234.4">
    <tspan x="410" y="234.4">10'</tspan>
  </text>
  <g>
    <polygon style="fill: #26ed0a" points="397,208 419,208 430,220 386,220 "/>
    <polygon style="fill: none; fill-opacity:0; stroke-width: 1; stroke: #000000" points="397,208 419,208 430,220 386,220 "/>
    <polygon style="fill: none; fill-opacity:0; stroke-width: 1; stroke: #000000" points="397,208 419,208 430,220 386,220 "/>
  </g>
  <text font-size="8.46667" style="fill: #000000;text-anchor:middle;font-family:sans-serif;font-style:normal;font-weight:normal" x="408" y="217.275">
    <tspan x="408" y="217.275">other</tspan>
  </text>
  <g>
    <ellipse style="fill: #1c5287" cx="50" cy="230" rx="10" ry="10"/>
    <ellipse style="fill: none; fill-opacity:0; stroke-width: 2; stroke: #7f7f7f" cx="50" cy="230" rx="10" ry="10"/>
    <ellipse style="fill: none; fill-opacity:0; stroke-width: 2; stroke: #7f7f7f" cx="50" cy="230" rx="10" ry="10"/>
  </g>
  <text font-size="11.2889" style="fill: #ffffff;text-anchor:middle;font-family:sans-serif;font-style:normal;font-weight:normal" x="50" y="234.4">
    <tspan x="50" y="234.4">1</tspan>
  </text>
  <g>
    <ellipse style="fill: #1c5287" cx="90" cy="230" rx="10" ry="10"/>
    <ellipse style="fill: none; fill-opacity:0; stroke-width: 2; stroke: #7f7f7f" cx="90" cy="230" rx="10" ry="10"/>
    <ellipse style="fill: none; fill-opacity:0; stroke-width: 2; stroke: #7f7f7f" cx="90" cy="230" rx="10" ry="10"/>
  </g>
  <text font-size="11.2889" style="fill: #ffffff;text-anchor:middle;font-family:sans-serif;font-style:normal;font-weight:normal" x="90" y="234.4">
    <tspan x="90" y="234.4">2</tspan>
  </text>
  <text font-size="12.8" style="fill: #000000;text-anchor:start;font-family:sans-serif;font-style:normal;font-weight:normal" x="90" y="230">
    <tspan x="90" y="230"></tspan>
  </text>
  <text font-size="12.8" style="fill: #000000;text-anchor:start;font-family:sans-serif;font-style:normal;font-weight:normal" x="80" y="230">
    <tspan x="80" y="230"></tspan>
  </text>
  <g>
    <line style="fill: none; fill-opacity:0; stroke-width: 1; stroke: #000000" x1="80" y1="230" x2="62.2361" y2="230"/>
    <polyline style="fill: none; fill-opacity:0; stroke-width: 1; stroke: #000000" points="66.118,227.5 61.118,230 66.118,232.5 "/>
  </g>
  <text font-size="11.2889" style="fill: #ffffff;text-anchor:middle;font-family:sans-serif;font-style:normal;font-weight:normal" x="130" y="234.4">
    <tspan x="130" y="234.4">3</tspan>
  </text>
  <text font-size="12.8" style="fill: #000000;text-anchor:start;font-family:sans-serif;font-style:normal;font-weight:normal" x="130" y="230">
    <tspan x="130" y="230"></tspan>
  </text>
  <text font-size="12.8" style="fill: #000000;text-anchor:start;font-family:sans-serif;font-style:normal;font-weight:normal" x="120" y="230">
    <tspan x="120" y="230"></tspan>
  </text>
  <g>
    <line style="fill: none; fill-opacity:0; stroke-width: 1; stroke: #000000" x1="120" y1="230" x2="102.236" y2="230"/>
    <polyline style="fill: none; fill-opacity:0; stroke-width: 1; stroke: #000000" points="106.118,227.5 101.118,230 106.118,232.5 "/>
  </g>
  <text font-size="12.8" style="fill: #000000;text-anchor:start;font-family:sans-serif;font-style:normal;font-weight:normal" x="170" y="230">
    <tspan x="170" y="230"></tspan>
  </text>
  <g>
    <line style="fill: none; fill-opacity:0; stroke-width: 1; stroke: #000000" x1="160" y1="230" x2="142.236" y2="230"/>
    <polyline style="fill: none; fill-opacity:0; stroke-width: 1; stroke: #000000" points="146.118,227.5 141.118,230 146.118,232.5 "/>
  </g>
  <text font-size="11.2889" style="fill: #ffffff;text-anchor:middle;font-family:sans-serif;font-style:normal;font-weight:normal" x="170" y="234.4">
    <tspan x="170" y="234.4">4</tspan>
  </text>
  <g>
    <ellipse style="fill: #1c5287" cx="130" cy="230" rx="10" ry="10"/>
    <ellipse style="fill: none; fill-opacity:0; stroke-width: 2; stroke: #7f7f7f" cx="130" cy="230" rx="10" ry="10"/>
    <ellipse style="fill: none; fill-opacity:0; stroke-width: 2; stroke: #7f7f7f" cx="130" cy="230" rx="10" ry="10"/>
  </g>
  <text font-size="11.2889" style="fill: #ffffff;text-anchor:middle;font-family:sans-serif;font-style:normal;font-weight:normal" x="130" y="234.4">
    <tspan x="130" y="234.4">3</tspan>
  </text>
  <g>
    <ellipse style="fill: #1c5287" cx="170" cy="230" rx="10" ry="10"/>
    <ellipse style="fill: none; fill-opacity:0; stroke-width: 2; stroke: #7f7f7f" cx="170" cy="230" rx="10" ry="10"/>
    <ellipse style="fill: none; fill-opacity:0; stroke-width: 2; stroke: #7f7f7f" cx="170" cy="230" rx="10" ry="10"/>
  </g>
  <text font-size="11.2889" style="fill: #ffffff;text-anchor:middle;font-family:sans-serif;font-style:normal;font-weight:normal" x="170" y="234.4">
    <tspan x="170" y="234.4">4</tspan>
  </text>
  <g>
    <polygon style="fill: #26ed0a" points="159,208 181,208 192,220 148,220 "/>
    <polygon style="fill: none; fill-opacity:0; stroke-width: 1; stroke: #000000" points="159,208 181,208 192,220 148,220 "/>
    <polygon style="fill: none; fill-opacity:0; stroke-width: 1; stroke: #000000" points="159,208 181,208 192,220 148,220 "/>
  </g>
  <text font-size="8.46667" style="fill: #000000;text-anchor:middle;font-family:sans-serif;font-style:normal;font-weight:normal" x="170" y="217.275">
    <tspan x="170" y="217.275">main</tspan>
  </text>
  <text font-size="11.2889" style="fill: #ffffff;text-anchor:middle;font-family:sans-serif;font-style:normal;font-weight:normal" x="130" y="315.4">
    <tspan x="130" y="315.4">3</tspan>
  </text>
  <text font-size="12.8" style="fill: #000000;text-anchor:start;font-family:sans-serif;font-style:normal;font-weight:normal" x="130" y="311">
    <tspan x="130" y="311"></tspan>
  </text>
  <text font-size="12.8" style="fill: #000000;text-anchor:start;font-family:sans-serif;font-style:normal;font-weight:normal" x="120" y="311">
    <tspan x="120" y="311"></tspan>
  </text>
  <g>
    <line style="fill: none; fill-opacity:0; stroke-width: 1; stroke: #000000" x1="120" y1="311" x2="90.8703" y2="242.06"/>
    <polyline style="fill: none; fill-opacity:0; stroke-width: 1; stroke: #000000" points="94.6841,244.663 90.4352,241.03 90.0784,246.609 "/>
  </g>
  <text font-size="12.8" style="fill: #000000;text-anchor:start;font-family:sans-serif;font-style:normal;font-weight:normal" x="170" y="311">
    <tspan x="170" y="311"></tspan>
  </text>
  <g>
    <line style="fill: none; fill-opacity:0; stroke-width: 1; stroke: #000000" x1="160" y1="311" x2="142.236" y2="311"/>
    <polyline style="fill: none; fill-opacity:0; stroke-width: 1; stroke: #000000" points="146.118,308.5 141.118,311 146.118,313.5 "/>
  </g>
  <text font-size="11.2889" style="fill: #ffffff;text-anchor:middle;font-family:sans-serif;font-style:normal;font-weight:normal" x="170" y="315.4">
    <tspan x="170" y="315.4">4</tspan>
  </text>
  <g>
    <ellipse style="fill: #1c5287" cx="130" cy="311" rx="10" ry="10"/>
    <ellipse style="fill: none; fill-opacity:0; stroke-width: 2; stroke: #7f7f7f" cx="130" cy="311" rx="10" ry="10"/>
    <ellipse style="fill: none; fill-opacity:0; stroke-width: 2; stroke: #7f7f7f" cx="130" cy="311" rx="10" ry="10"/>
  </g>
  <text font-size="11.2889" style="fill: #ffffff;text-anchor:middle;font-family:sans-serif;font-style:normal;font-weight:normal" x="130" y="315.4">
    <tspan x="130" y="315.4">7</tspan>
  </text>
  <g>
    <ellipse style="fill: #1c5287" cx="170" cy="311" rx="10" ry="10"/>
    <ellipse style="fill: none; fill-opacity:0; stroke-width: 2; stroke: #7f7f7f" cx="170" cy="311" rx="10" ry="10"/>
    <ellipse style="fill: none; fill-opacity:0; stroke-width: 2; stroke: #7f7f7f" cx="170" cy="311" rx="10" ry="10"/>
  </g>
  <text font-size="11.2889" style="fill: #ffffff;text-anchor:middle;font-family:sans-serif;font-style:normal;font-weight:normal" x="170" y="315.4">
    <tspan x="170" y="315.4">8</tspan>
  </text>
  <text font-size="11.2889" style="fill: #ffffff;text-anchor:middle;font-family:sans-serif;font-style:normal;font-weight:normal" x="130" y="355.4">
    <tspan x="130" y="355.4">3</tspan>
  </text>
  <text font-size="12.8" style="fill: #000000;text-anchor:start;font-family:sans-serif;font-style:normal;font-weight:normal" x="130" y="351">
    <tspan x="130" y="351"></tspan>
  </text>
  <text font-size="12.8" style="fill: #000000;text-anchor:start;font-family:sans-serif;font-style:normal;font-weight:normal" x="120" y="351">
    <tspan x="120" y="351"></tspan>
  </text>
  <g>
    <line style="fill: none; fill-opacity:0; stroke-width: 1; stroke: #000000" x1="120" y1="351" x2="90.5834" y2="242.159"/>
    <polyline style="fill: none; fill-opacity:0; stroke-width: 1; stroke: #000000" points="94.0097,245.254 90.2917,241.079 89.1828,246.558 "/>
  </g>
  <text font-size="12.8" style="fill: #000000;text-anchor:start;font-family:sans-serif;font-style:normal;font-weight:normal" x="170" y="351">
    <tspan x="170" y="351"></tspan>
  </text>
  <g>
    <line style="fill: none; fill-opacity:0; stroke-width: 1; stroke: #000000" x1="160" y1="351" x2="142.236" y2="351"/>
    <polyline style="fill: none; fill-opacity:0; stroke-width: 1; stroke: #000000" points="146.118,348.5 141.118,351 146.118,353.5 "/>
  </g>
  <text font-size="11.2889" style="fill: #ffffff;text-anchor:middle;font-family:sans-serif;font-style:normal;font-weight:normal" x="170" y="355.4">
    <tspan x="170" y="355.4">4</tspan>
  </text>
  <g>
    <ellipse style="fill: #1c5287" cx="130" cy="351" rx="10" ry="10"/>
    <ellipse style="fill: none; fill-opacity:0; stroke-width: 2; stroke: #7f7f7f" cx="130" cy="351" rx="10" ry="10"/>
    <ellipse style="fill: none; fill-opacity:0; stroke-width: 2; stroke: #7f7f7f" cx="130" cy="351" rx="10" ry="10"/>
  </g>
  <text font-size="11.2889" style="fill: #ffffff;text-anchor:middle;font-family:sans-serif;font-style:normal;font-weight:normal" x="130" y="355.4">
    <tspan x="130" y="355.4">9</tspan>
  </text>
  <g>
    <ellipse style="fill: #1c5287" cx="170" cy="351" rx="10" ry="10"/>
    <ellipse style="fill: none; fill-opacity:0; stroke-width: 2; stroke: #7f7f7f" cx="170" cy="351" rx="10" ry="10"/>
    <ellipse style="fill: none; fill-opacity:0; stroke-width: 2; stroke: #7f7f7f" cx="170" cy="351" rx="10" ry="10"/>
  </g>
  <text font-size="11.2889" style="fill: #ffffff;text-anchor:middle;font-family:sans-serif;font-style:normal;font-weight:normal" x="170" y="355.4">
    <tspan x="170" y="355.4">10</tspan>
  </text>
  <text font-size="11.2889" style="fill: #ffffff;text-anchor:middle;font-family:sans-serif;font-style:normal;font-weight:normal" x="130" y="274.4">
    <tspan x="130" y="274.4">3</tspan>
  </text>
  <text font-size="12.8" style="fill: #000000;text-anchor:start;font-family:sans-serif;font-style:normal;font-weight:normal" x="130" y="270">
    <tspan x="130" y="270"></tspan>
  </text>
  <text font-size="12.8" style="fill: #000000;text-anchor:start;font-family:sans-serif;font-style:normal;font-weight:normal" x="120" y="270">
    <tspan x="120" y="270"></tspan>
  </text>
  <g>
    <line style="fill: none; fill-opacity:0; stroke-width: 1; stroke: #000000" x1="120" y1="270" x2="91.5811" y2="241.581"/>
    <polyline style="fill: none; fill-opacity:0; stroke-width: 1; stroke: #000000" points="96.0939,242.558 90.7906,240.791 92.5583,246.094 "/>
  </g>
  <text font-size="12.8" style="fill: #000000;text-anchor:start;font-family:sans-serif;font-style:normal;font-weight:normal" x="170" y="270">
    <tspan x="170" y="270"></tspan>
  </text>
  <g>
    <line style="fill: none; fill-opacity:0; stroke-width: 1; stroke: #000000" x1="160" y1="270" x2="142.236" y2="270"/>
    <polyline style="fill: none; fill-opacity:0; stroke-width: 1; stroke: #000000" points="146.118,267.5 141.118,270 146.118,272.5 "/>
  </g>
  <text font-size="11.2889" style="fill: #ffffff;text-anchor:middle;font-family:sans-serif;font-style:normal;font-weight:normal" x="170" y="274.4">
    <tspan x="170" y="274.4">4</tspan>
  </text>
  <g>
    <ellipse style="fill: #1c5287" cx="130" cy="270" rx="10" ry="10"/>
    <ellipse style="fill: none; fill-opacity:0; stroke-width: 2; stroke: #7f7f7f" cx="130" cy="270" rx="10" ry="10"/>
    <ellipse style="fill: none; fill-opacity:0; stroke-width: 2; stroke: #7f7f7f" cx="130" cy="270" rx="10" ry="10"/>
  </g>
  <text font-size="11.2889" style="fill: #ffffff;text-anchor:middle;font-family:sans-serif;font-style:normal;font-weight:normal" x="130" y="274.4">
    <tspan x="130" y="274.4">5</tspan>
  </text>
  <g>
    <ellipse style="fill: #1c5287" cx="170" cy="270" rx="10" ry="10"/>
    <ellipse style="fill: none; fill-opacity:0; stroke-width: 2; stroke: #7f7f7f" cx="170" cy="270" rx="10" ry="10"/>
    <ellipse style="fill: none; fill-opacity:0; stroke-width: 2; stroke: #7f7f7f" cx="170" cy="270" rx="10" ry="10"/>
  </g>
  <text font-size="11.2889" style="fill: #ffffff;text-anchor:middle;font-family:sans-serif;font-style:normal;font-weight:normal" x="170" y="274.4">
    <tspan x="170" y="274.4">6</tspan>
  </text>
  <text font-size="12.8" style="fill: #000000;text-anchor:start;font-family:sans-serif;font-style:normal;font-weight:normal" x="210" y="270">
    <tspan x="210" y="270"></tspan>
  </text>
  <g>
    <line style="fill: none; fill-opacity:0; stroke-width: 1; stroke: #000000" x1="200" y1="270" x2="182.236" y2="270"/>
    <polyline style="fill: none; fill-opacity:0; stroke-width: 1; stroke: #000000" points="186.118,267.5 181.118,270 186.118,272.5 "/>
  </g>
  <text font-size="11.2889" style="fill: #ffffff;text-anchor:middle;font-family:sans-serif;font-style:normal;font-weight:normal" x="210" y="274.4">
    <tspan x="210" y="274.4">4</tspan>
  </text>
  <g>
    <ellipse style="fill: #1c5287" cx="210" cy="270" rx="10" ry="10"/>
    <ellipse style="fill: none; fill-opacity:0; stroke-width: 2; stroke: #7f7f7f" cx="210" cy="270" rx="10" ry="10"/>
    <ellipse style="fill: none; fill-opacity:0; stroke-width: 2; stroke: #7f7f7f" cx="210" cy="270" rx="10" ry="10"/>
  </g>
  <text font-size="11.2889" style="fill: #ffffff;text-anchor:middle;font-family:sans-serif;font-style:normal;font-weight:normal" x="210" y="274.4">
    <tspan x="210" y="274.4">Ma</tspan>
  </text>
  <text font-size="12.8" style="fill: #000000;text-anchor:start;font-family:sans-serif;font-style:normal;font-weight:normal" x="250" y="270">
    <tspan x="250" y="270"></tspan>
  </text>
  <g>
    <line style="fill: none; fill-opacity:0; stroke-width: 1; stroke: #000000" x1="240" y1="270" x2="222.236" y2="270"/>
    <polyline style="fill: none; fill-opacity:0; stroke-width: 1; stroke: #000000" points="226.118,267.5 221.118,270 226.118,272.5 "/>
  </g>
  <text font-size="11.2889" style="fill: #ffffff;text-anchor:middle;font-family:sans-serif;font-style:normal;font-weight:normal" x="250" y="274.4">
    <tspan x="250" y="274.4">4</tspan>
  </text>
  <g>
    <ellipse style="fill: #1c5287" cx="250" cy="270" rx="10" ry="10"/>
    <ellipse style="fill: none; fill-opacity:0; stroke-width: 2; stroke: #7f7f7f" cx="250" cy="270" rx="10" ry="10"/>
    <ellipse style="fill: none; fill-opacity:0; stroke-width: 2; stroke: #7f7f7f" cx="250" cy="270" rx="10" ry="10"/>
  </g>
  <text font-size="11.2889" style="fill: #ffffff;text-anchor:middle;font-family:sans-serif;font-style:normal;font-weight:normal" x="250" y="274.4">
    <tspan x="250" y="274.4">Mb</tspan>
  </text>
  <g>
    <line style="fill: none; fill-opacity:0; stroke-width: 1; stroke: #000000" x1="240" y1="270" x2="182.338" y2="347.208"/>
    <polyline style="fill: none; fill-opacity:0; stroke-width: 1; stroke: #000000" points="182.658,342.602 181.669,348.104 186.664,345.594 "/>
  </g>
  <g>
    <line style="fill: none; fill-opacity:0; stroke-width: 1; stroke: #000000" x1="200" y1="270" x2="181.98" y2="306.99"/>
    <polyline style="fill: none; fill-opacity:0; stroke-width: 1; stroke: #000000" points="181.432,302.405 181.49,307.995 185.927,304.595 "/>
  </g>
  <g>
    <polygon style="fill: #26ed0a" points="159,289 181,289 192,301 148,301 "/>
    <polygon style="fill: none; fill-opacity:0; stroke-width: 1; stroke: #000000" points="159,289 181,289 192,301 148,301 "/>
    <polygon style="fill: none; fill-opacity:0; stroke-width: 1; stroke: #000000" points="159,289 181,289 192,301 148,301 "/>
  </g>
  <text font-size="8.46667" style="fill: #000000;text-anchor:middle;font-family:sans-serif;font-style:normal;font-weight:normal" x="170" y="298.275">
    <tspan x="170" y="298.275">a</tspan>
  </text>
  <g>
    <polygon style="fill: #26ed0a" points="159,329 181,329 192,341 148,341 "/>
    <polygon style="fill: none; fill-opacity:0; stroke-width: 1; stroke: #000000" points="159,329 181,329 192,341 148,341 "/>
    <polygon style="fill: none; fill-opacity:0; stroke-width: 1; stroke: #000000" points="159,329 181,329 192,341 148,341 "/>
  </g>
  <text font-size="8.46667" style="fill: #000000;text-anchor:middle;font-family:sans-serif;font-style:normal;font-weight:normal" x="170" y="338.275">
    <tspan x="170" y="338.275">b</tspan>
  </text>
  <g>
    <polygon style="fill: #26ed0a" points="159,149 181,149 192,161 148,161 "/>
    <polygon style="fill: none; fill-opacity:0; stroke-width: 1; stroke: #000000" points="159,149 181,149 192,161 148,161 "/>
    <polygon style="fill: none; fill-opacity:0; stroke-width: 1; stroke: #000000" points="159,149 181,149 192,161 148,161 "/>
  </g>
  <text font-size="8.46667" style="fill: #000000;text-anchor:middle;font-family:sans-serif;font-style:normal;font-weight:normal" x="170" y="158.275">
    <tspan x="170" y="158.275">b</tspan>
  </text>
  <g>
    <polygon style="fill: #26ed0a" points="159,109 181,109 192,121 148,121 "/>
    <polygon style="fill: none; fill-opacity:0; stroke-width: 1; stroke: #000000" points="159,109 181,109 192,121 148,121 "/>
    <polygon style="fill: none; fill-opacity:0; stroke-width: 1; stroke: #000000" points="159,109 181,109 192,121 148,121 "/>
  </g>
  <text font-size="8.46667" style="fill: #000000;text-anchor:middle;font-family:sans-serif;font-style:normal;font-weight:normal" x="170" y="118.275">
    <tspan x="170" y="118.275">a</tspan>
  </text>
</svg>
